<?xml version="1.0" encoding="UTF-8" standalone="no"?>
<!-- Created with Inkscape (http://www.inkscape.org/) -->

<svg
   xmlns:dc="http://purl.org/dc/elements/1.1/"
   xmlns:cc="http://creativecommons.org/ns#"
   xmlns:rdf="http://www.w3.org/1999/02/22-rdf-syntax-ns#"
   xmlns:svg="http://www.w3.org/2000/svg"
   xmlns="http://www.w3.org/2000/svg"
   version="1.1"
   width="286"
   height="100"
   id="svg3044">
  <metadata
     id="metadata3050">
    <rdf:RDF>
      <cc:Work
         rdf:about="">
        <dc:format>image/svg+xml</dc:format>
        <dc:type
           rdf:resource="http://purl.org/dc/dcmitype/StillImage" />
        <dc:title></dc:title>
      </cc:Work>
    </rdf:RDF>
  </metadata>
  <defs
     id="defs3048" />
  <path
     d="m 16.633008,4.30634 c -1.242807,7.28e-5 -2.328767,0.4599458 -3.259146,1.3902652 -0.930404,0.9304656 -1.401671,1.9888906 -1.40166,3.167981 -1.1e-5,1.0543045 0.471256,2.0003398 1.40166,2.8374898 0.930379,0.83733 1.830563,1.625143 2.700761,2.370288 -0.06364,0.309086 -0.219583,0.467311 -0.46722,0.467238 l -9.9597676,0 0,4.75199 12.8428576,0 c 1.240503,3.6e-5 2.343647,-0.44142 3.304729,-1.310515 0.961043,-0.868983 1.435826,-1.888462 1.435848,-3.065401 -2.2e-5,-1.117792 -0.548219,-2.17505 -1.66376,-3.168018 -0.931549,-0.806481 -1.901631,-1.609206 -2.894487,-2.4158701 -1.8e-5,-0.3089027 0.128386,-0.4671282 0.376055,-0.4672017 l 5.959909,0 2.41587,0 0,10.4270058 5.583851,0 0,-10.4270058 5.207796,0 0,-4.5582462 -13.207517,0 z m 24.010563,0 -3.817532,14.985252 5.766181,0 0.467221,-1.960046 4.284751,0 0.455825,1.960046 5.777577,0 L 49.668898,4.30634 z m 13.959628,0 0,14.985252 5.583852,0 0,-4.56966 c 2.480985,3.040022 4.586409,4.569696 6.324567,4.56966 l 9.310218,0 0,-4.75199 -7.635064,0 c -0.434021,7.3e-5 -0.778023,-0.187983 -1.025604,-0.558403 2.171982,-0.931451 3.259076,-2.477279 3.259146,-4.6494111 -7e-5,-1.3653945 -0.528705,-2.5522165 -1.58399,-3.5440182 C 67.780904,4.7961142 66.575663,4.3064128 65.212519,4.30634 z m 24.842442,0 3.817532,14.985252 6.41573,0 1.310497,-5.036899 1.2991,5.036899 6.427122,0 3.908688,-14.985252 -5.777564,0 -1.390264,5.0254479 -1.219332,-5.0254479 -6.415732,0 -1.2991,5.0254479 L 85.223219,4.30634 z m 25.036159,0 -3.90869,14.985252 5.85735,0 0.46722,-1.960046 4.19357,0 0.5584,1.960046 5.76618,0 -3.99986,-14.985252 z m 13.86847,0 0,14.985252 5.58385,0 0,-4.56966 c 2.48092,3.040022 4.61617,4.569696 6.41573,4.56966 l 8.55812,0 4.28474,0 c 1.24038,3.6e-5 2.34351,-0.44142 3.30473,-1.310515 0.96091,-0.868983 1.4357,-1.888462 1.43585,-3.065401 -1.5e-4,-1.676705 -1.47949,-3.479329 -4.45569,-5.4015579 l 0,-0.2734952 c -1.4e-4,-0.2475678 0.0893,-0.3759632 0.2735,-0.3760367 l 7.72622,0 0,-4.5582462 -10.05092,0 c -1.24067,7.28e-5 -2.34268,0.4450311 -3.30473,1.344683 -0.96234,0.899797 -1.44739,1.9731005 -1.44725,3.2135632 -1.4e-4,1.7358888 1.33238,3.4399438 3.99986,5.1166128 -0.12282,0.434054 -0.67103,0.649641 -1.66377,0.649568 -0.009,0 -0.0923,3.7e-5 -0.1026,0 l 0,-0.09117 -6.88294,0 c -0.4341,7.3e-5 -0.77581,-0.187983 -1.02561,-0.558404 2.11057,-0.93145 3.16784,-2.477278 3.16798,-4.6494101 -1.4e-4,-1.3017625 -0.51499,-2.4634217 -1.53841,-3.4870214 -1.02368,-1.0234908 -2.21286,-1.5383536 -3.57822,-1.5384265 l -10.70048,0 z m -58.163219,4.0910444 3.532641,0 c 0.742888,3.62e-5 1.116705,0.3715876 1.11677,1.1167337 -6.5e-5,0.7452919 -0.373882,1.1168429 -1.11677,1.1168059 l -3.532641,0 z m 63.747069,0 3.53265,0 c 0.74281,3.62e-5 1.11664,0.3715876 1.11676,1.1167337 -1.2e-4,0.7452919 -0.37395,1.1168429 -1.11676,1.1168059 l -3.53265,0 z m -78.732303,0.9344035 1.116771,4.2733731 -2.324706,0 z m 63.747063,0 1.20794,4.2733731 -2.3247,0 z m 42.15238,5.2989791 c -1.4e-4,2.108499 -0.83044,3.668003 -2.50702,4.660825 l 134.19476,0 0,-4.660825 z m -45.41152,8.660668 c -3.53537,7.2e-5 -6.640687,0.958727 -9.310214,2.883109 -2.976436,2.169797 -4.467172,4.963237 -4.467082,8.375757 -9e-5,3.537564 1.529588,6.828691 4.569643,9.868605 2.789944,2.419735 5.571963,4.839325 8.364373,7.258988 3.03985,2.853682 4.56953,5.761843 4.56964,8.740456 -1.1e-4,1.983493 -0.84406,3.631317 -2.51842,4.934283 -1.67459,1.303038 -3.53686,1.948669 -5.58385,1.948669 -1.924498,0 -3.700835,-0.558441 -5.344546,-1.675175 C 94.325384,64.509468 93.2532,63.061074 92.75572,61.261626 92.632939,60.518704 92.504535,59.77334 92.379665,59.028085 92.131923,57.787586 91.88651,57.15924 91.63895,57.159203 c -0.683967,3.7e-5 -1.025696,2.518194 -1.025606,7.543898 l 0,1.857504 c -9e-5,2.4197 2.949288,3.635183 8.843002,3.635183 4.343994,0 8.036464,-1.057259 11.076534,-3.167981 3.41246,-2.356066 5.11651,-5.619625 5.11663,-9.777439 -1.2e-4,-3.598863 -1.55734,-7.006972 -4.66081,-10.233262 -2.85376,-2.480999 -5.70455,-4.960247 -8.5581,-7.441319 -3.101408,-2.66734 -4.649512,-5.155704 -4.649413,-7.452768 -9.9e-5,-1.735745 0.744135,-3.185267 2.233533,-4.364503 1.48922,-1.179127 3.13477,-1.766266 4.93431,-1.766302 2.72858,3.6e-5 4.89364,0.958726 6.50689,2.883072 1.05411,1.240572 1.58388,2.573076 1.58399,3.999879 -1.1e-4,0.681621 0.18566,1.025643 0.55838,1.025568 0.43384,7.5e-5 0.64945,-0.427599 0.64956,-1.264894 -1.1e-4,-0.837186 0.0549,-2.099784 0.14814,-3.806135 0.093,-1.706244 0.13664,-2.995133 0.13674,-3.863132 -1e-4,-0.497505 -1.30279,-0.937795 -3.90869,-1.310477 -2.04719,-0.247605 -3.69388,-0.364588 -4.9343,-0.36466 z m 37.03575,0 c -6.82528,7.2e-5 -12.653,2.204076 -17.49227,6.609455 -4.83952,4.405491 -7.25912,9.990073 -7.259,16.751557 -1.2e-4,6.638847 2.33467,12.222298 7.01969,16.751554 4.68477,4.529292 10.38172,6.791787 17.08203,6.791787 6.94769,0 12.80635,-2.361099 17.58344,-7.076695 4.77675,-4.715526 7.16767,-10.544391 7.16784,-17.492252 -1.7e-4,-6.886453 -2.32119,-12.383843 -6.97413,-16.478061 -4.46694,-3.910099 -10.17991,-5.857273 -17.1276,-5.857345 z M 34.125278,23.564929 c -0.122723,7.4e-5 -0.46672,0.09864 -1.025605,0.284909 -0.745255,0.247676 -1.889718,0.364697 -3.441475,0.364659 -2.542416,3.8e-5 -6.379339,-0.02989 -11.498178,-0.09117 -5.11887,-0.06129 -8.9443971,-0.09113 -11.4867791,-0.09117 -0.6838833,3.6e-5 -1.0256088,0.185795 -1.0256055,0.558367 -3.3e-6,0.370385 0.3417222,0.558439 1.0256055,0.558367 3.3489471,7.2e-5 5.0254551,1.587108 5.0254671,4.751989 l 0,33.776605 c -1.2e-5,2.358364 -0.688012,3.789471 -2.0512109,4.284751 -0.5589251,0.06364 -1.1162457,0.150823 -1.675157,0.273494 -0.9315344,0.124969 -1.3902715,0.310764 -1.3902638,0.558405 -7.7e-6,0.372609 0.401363,0.558365 1.2079347,0.558365 0.870176,0 2.1281325,-0.02881 3.771949,-0.09117 1.643794,-0.06246 2.892626,-0.09117 3.760553,-0.09117 1.985729,0 4.920192,0.05736 8.797415,0.182328 3.877175,0.12497 6.811639,0.193745 8.797415,0.193709 1.985711,3.6e-5 2.974219,-2.174175 2.974255,-6.518293 -3.6e-5,-1.860749 -0.155986,-2.791871 -0.46722,-2.791908 -0.309027,3.7e-5 -0.524621,0.314192 -0.64955,0.93444 -0.556678,2.17206 -1.457996,3.621583 -2.70076,4.364503 -0.867942,0.497616 -2.172902,0.752148 -3.908697,0.752148 -3.412597,0 -5.57539,-0.254532 -6.506897,-0.752148 -1.613151,-0.806517 -2.427283,-2.726195 -2.427266,-5.766144 l 0,-12.558005 c -1.7e-5,-0.372573 0.128386,-0.558331 0.376056,-0.558367 0.620243,3.6e-5 1.521561,3.6e-5 2.700761,0 1.2405,-0.06129 2.171639,-0.102545 2.791926,-0.102545 3.785157,0 5.890582,0.873798 6.324567,2.609578 0.06358,0.497615 0.132349,0.997564 0.193724,1.492844 0.124929,0.745218 0.310706,1.11677 0.558386,1.116734 0.433923,3.6e-5 0.649517,-0.470083 0.64955,-1.401643 -3.3e-5,-2.976315 0.146797,-5.141372 0.455825,-6.506879 0.186272,-0.806553 0.284857,-1.33633 0.28489,-1.584008 -3.3e-5,-0.247604 -0.158258,-0.403568 -0.46722,-0.467203 -1.240554,1.179201 -2.600611,1.76634 -4.091026,1.766303 l -9.401383,0 c -0.24767,3.7e-5 -0.376073,-0.185721 -0.376056,-0.558403 l 0,-15.167547 c -1.7e-5,-0.372572 0.128386,-0.558329 0.376056,-0.558402 l 7.726228,0 c 2.667322,7.3e-5 4.28419,0.772968 4.843136,2.324705 0.122657,0.558987 0.239669,1.116297 0.36466,1.675174 0.186275,0.929299 0.372047,1.401715 0.558385,1.401679 0.433924,3.6e-5 0.748103,-1.059519 0.93444,-3.168018 0.0613,-1.30406 0.120954,-2.606768 0.18233,-3.908678 0.186272,-0.867852 0.284858,-1.367801 0.284891,-1.492806 -3.3e-5,-0.372573 -0.128438,-0.558331 -0.376056,-0.558404 z m 206.032722,0 c -0.12292,7.4e-5 -0.4257,0.09864 -0.92304,0.284909 -0.68185,0.247676 -1.71158,0.364697 -3.07682,0.364659 -2.60624,3.8e-5 -6.50053,-0.02989 -11.68051,-0.09117 -5.18041,-0.06129 -9.06331,-0.09113 -11.66911,-0.09117 -0.68182,3.6e-5 -1.02581,0.185795 -1.0256,0.558367 -2.1e-4,0.370385 0.34378,0.558439 1.0256,0.558367 3.35102,7.2e-5 5.02525,1.644469 5.02548,4.934318 l 0,33.411946 c -2.3e-4,2.481072 -0.68596,3.971801 -2.05121,4.467081 -0.55914,0.06364 -1.14629,0.150823 -1.76633,0.273494 -0.93173,0.124969 -1.40188,0.310764 -1.40166,0.558405 -2.2e-4,0.372609 0.40115,0.558365 1.20793,0.558365 0.86997,0 2.14285,-0.02881 3.81754,-0.09117 1.67426,-0.06246 2.94939,-0.09117 3.81753,-0.09117 1.92418,0 4.8426,0.05736 8.75184,0.182328 3.90876,0.12497 6.81807,0.193745 8.74043,0.193709 2.04684,3.6e-5 3.07657,-2.488329 3.07681,-7.452696 -2.4e-4,-1.240537 -0.15846,-1.857468 -0.46721,-1.857505 -0.31151,3.7e-5 -0.52711,0.314192 -0.64956,0.93444 -0.55915,2.17206 -1.46048,3.621583 -2.70076,4.364503 -0.87042,0.497616 -2.1731,0.752148 -3.9087,0.752148 -3.59911,0 -5.86048,-0.284362 -6.79178,-0.843312 -1.42706,-0.86789 -2.14261,-2.945759 -2.14238,-6.233383 l 0,-12.284475 0.2735,-0.273494 c 0.62004,3.6e-5 1.67731,-0.04117 3.16799,-0.102545 1.36297,0 2.42251,0 3.16797,0 3.351,0 5.211,0.873798 5.58386,2.609578 0.0611,0.497615 0.091,0.997564 0.0912,1.492844 0.0611,0.745218 0.2767,1.11677 0.64955,1.116734 0.37237,3.6e-5 0.55815,-0.371516 0.55839,-1.116734 -2.4e-4,-2.233395 0.18552,-4.497021 0.55838,-6.791788 0.12245,-0.745217 0.18209,-1.274994 0.18233,-1.584008 -2.4e-4,-0.247604 -0.11725,-0.403568 -0.36466,-0.467203 -1.4884,1.179201 -3.03651,1.76634 -4.64941,1.766303 l -8.843,0 c -0.25014,3.7e-5 -0.37629,-0.185721 -0.37605,-0.558403 l 0,-15.167547 c -2.4e-4,-0.372572 0.12591,-0.558329 0.37605,-0.558402 l 7.72623,0 c 2.66712,7.3e-5 4.27259,0.772968 4.83174,2.324705 0.0611,0.558987 0.15969,1.146126 0.2849,1.766338 0.18606,0.867963 0.40165,1.310551 0.64954,1.310515 0.24741,3.6e-5 0.43318,-0.256794 0.55839,-0.752147 0.18607,-1.738041 0.27325,-3.040716 0.27349,-3.908679 0.0612,-0.311201 0.18952,-0.955736 0.37605,-1.94863 0.12472,-0.806518 0.18209,-1.464694 0.18234,-1.960046 -2.5e-4,-0.372573 -0.1562,-0.558331 -0.46723,-0.558404 z M 38.125139,24.032168 c -0.681644,3.6e-5 -1.025641,0.185794 -1.025605,0.558367 -3.6e-5,0.247714 0.499915,0.435732 1.492826,0.558367 0.620223,0.0637 1.237185,0.121066 1.857485,0.18233 1.799399,0.495353 2.700717,2.112255 2.700761,4.843154 l 0,32.853542 c -4.4e-5,2.731009 -0.685767,4.377702 -2.051211,4.934319 -4e-5,0 -0.587182,0.08719 -1.76632,0.273495 -0.929296,0.124969 -1.390302,0.310764 -1.390266,0.558404 -3.6e-5,0.372609 0.40133,0.558365 1.207936,0.558365 0.867872,0 2.141876,-0.02881 3.817531,-0.09117 1.675571,-0.06246 2.949576,-0.09117 3.817532,-0.09117 1.054169,0 2.587362,0.02881 4.603828,0.09117 2.016364,0.06251 3.549558,0.09117 4.603829,0.09117 0.745168,0 1.116715,-0.185756 1.11677,-0.558365 -5.5e-5,-0.24764 -0.587197,-0.463264 -1.766321,-0.649568 -0.681658,-0.06133 -1.397204,-0.118698 -2.142375,-0.182331 -1.79949,-0.556617 -2.700813,-2.418897 -2.700761,-5.583851 l 0,-34.346386 c -5.2e-5,-0.931487 0.685676,-1.390228 2.05121,-1.390264 3.039909,3.6e-5 5.518017,1.116952 7.441337,3.350311 1.923204,2.233431 2.883029,4.896175 2.883092,7.999721 -6.3e-5,4.280521 -1.635354,7.259718 -4.922907,8.934163 -1.179232,0.620286 -2.364912,0.934477 -3.544036,0.934439 -0.806619,3.8e-5 -1.207987,0.215624 -1.207935,0.64957 -5.2e-5,0.372609 0.343947,0.558403 1.025605,0.558367 4.344046,3.6e-5 8.036517,-1.332467 11.076539,-3.999879 3.039894,-2.667303 4.558176,-6.14645 4.558246,-10.426971 -7e-5,-3.53749 -1.54817,-6.259858 -4.64941,-8.182051 -2.544724,-1.613072 -5.718817,-2.427212 -9.503944,-2.427248 -0.992925,3.6e-5 -2.427537,0.02991 -4.318939,0.09117 -1.891504,0.06137 -3.337509,0.09121 -4.330334,0.09117 -0.992918,3.7e-5 -2.481378,-0.02991 -4.467082,-0.09117 -1.985783,-0.06129 -3.474248,-0.09113 -4.467081,-0.09117 z m 31.543064,0 c -0.556712,3.6e-5 -0.831949,0.158262 -0.831879,0.467202 -7e-5,0.31131 0.431118,0.554465 1.2991,0.740697 0.620192,0.06141 1.218729,0.132444 1.777716,0.193743 1.4881,0.497615 2.233467,1.857686 2.233541,4.091008 l 0,33.411945 c -7.4e-5,2.85368 -0.685801,4.530203 -2.051211,5.025484 -0.556716,0.124969 -1.143858,0.212159 -1.766321,0.273495 -0.929323,0.124969 -1.401731,0.310764 -1.401661,0.558404 -7e-5,0.372609 0.401301,0.558365 1.207936,0.558365 0.867842,0 2.128069,-0.02881 3.771948,-0.09117 1.643733,-0.06246 2.901689,-0.09117 3.771949,-0.09117 1.05414,0 2.602241,0.02881 4.649412,0.09117 2.047005,0.06251 3.59511,0.09117 4.649411,0.09117 0.806481,0 1.219243,-0.185756 1.219331,-0.558365 -8.8e-5,-0.309014 -0.628445,-0.5246 -1.868882,-0.649568 -0.743035,-0.06133 -1.488403,-0.118698 -2.23354,-0.182331 -1.738177,-0.495281 -2.598281,-1.898819 -2.598201,-4.193586 l 0,-33.958935 c -8e-5,-2.544594 0.772834,-4.044477 2.324706,-4.478494 0.558834,-0.06126 1.088608,-0.118625 1.58399,-0.18233 0.806482,-0.06126 1.207851,-0.276849 1.207935,-0.649532 -8.4e-5,-0.30894 -0.314263,-0.467166 -0.934439,-0.467202 -0.867997,3.6e-5 -2.142001,0.02991 -3.817532,0.09117 -1.675695,0.06137 -2.938303,0.09121 -3.806135,0.09117 -0.931604,3.7e-5 -2.332879,-0.02991 -4.193587,-0.09117 -1.860855,-0.06129 -3.26213,-0.09113 -4.193587,-0.09117 z m 96.703187,0 c -0.68177,3.6e-5 -1.02577,0.185794 -1.0256,0.558367 -1.7e-4,0.309049 0.49067,0.497103 1.48143,0.558367 0.62237,0.0637 1.24845,0.121066 1.86888,0.18233 1.86061,0.434017 2.79175,1.993522 2.79192,4.660825 l 0,18.335563 c -1.7e-4,0.742957 -1.7e-4,1.889703 0,3.441439 -0.0615,1.551846 -0.0914,2.698554 -0.0912,3.441512 -1.7e-4,5.089338 -0.0988,8.252031 -0.28488,9.49253 -0.25009,1.79945 -0.83724,2.888834 -1.76632,3.259146 -1.8e-4,0 -0.51504,0.07228 -1.53841,0.227913 -1.02371,0.155636 -1.53857,0.356346 -1.53842,0.603986 -1.5e-4,0.372609 0.34384,0.558365 1.02561,0.558365 0.86775,0 2.15667,-0.02881 3.86311,-0.09117 1.70612,-0.06246 2.99503,-0.09117 3.86312,-0.09117 1.42893,0 3.53321,0.100968 6.32457,0.319077 2.79099,0.21814 4.90895,0.330491 6.33596,0.330455 7.50656,3.6e-5 13.73564,-2.045741 18.70021,-6.142218 5.27314,-4.341821 7.90835,-10.210727 7.90856,-17.59483 -2.1e-4,-14.702205 -9.92405,-22.050462 -29.77675,-22.050498 -1.05439,3.6e-5 -2.5876,0.02991 -4.60383,0.09117 -2.01659,0.06137 -3.55891,0.09121 -4.61522,0.09117 -0.99304,3.8e-5 -2.48265,-0.02989 -4.46708,-0.09117 -1.98478,-0.06129 -3.46298,-0.09113 -4.45569,-0.09117 z m 97.99091,0 c -0.62052,3.6e-5 -0.93471,0.158262 -0.93445,0.467202 -2.6e-4,0.31131 0.47214,0.526897 1.40165,0.649532 0.55866,0.125041 1.1458,0.223609 1.76633,0.284908 1.42657,0.497615 2.14211,1.759082 2.14238,3.806136 l 0,34.528715 c -2.7e-4,2.294767 -0.68827,3.698305 -2.05121,4.193586 -0.55919,0.06364 -1.14633,0.150824 -1.76632,0.273495 -0.9318,0.124969 -1.40193,0.310764 -1.40167,0.558404 -2.6e-4,0.372609 0.4011,0.558365 1.20794,0.558365 0.86765,0 2.14165,-0.02881 3.81754,-0.09117 1.67533,-0.06246 2.94934,-0.09117 3.81753,-0.09117 1.05394,0 2.60091,0.02881 4.64941,0.09117 2.04793,0.06251 3.60632,0.09117 4.6608,0.09117 0.74493,0 1.11647,-0.185756 1.11677,-0.558365 -3e-4,-0.309014 -0.62638,-0.5246 -1.86888,-0.649568 -0.74322,-0.06133 -1.48861,-0.118698 -2.23354,-0.182331 -1.7361,-0.556617 -2.59848,-2.145949 -2.5982,-4.75199 l 0,-33.503109 c -2.8e-4,-2.480962 0.77491,-3.941899 2.3247,-4.375916 0.55862,-0.06126 1.11597,-0.118625 1.67518,-0.18233 0.80626,-0.06126 1.20764,-0.276849 1.2079,-0.649532 -2.6e-4,-0.30894 -0.34198,-0.467166 -1.02558,-0.467202 -0.8682,3.6e-5 -2.14221,0.02991 -3.81755,0.09117 -1.67588,0.06137 -2.93848,0.09121 -3.80612,0.09117 -0.92954,3.7e-5 -2.31703,-0.02991 -4.148,-0.09117 -1.83152,-0.06129 -3.20762,-0.09113 -4.13661,-0.09117 z m -123.40313,2.051211 c 5.39818,3.6e-5 9.76725,2.360004 13.11636,7.076658 2.91712,4.155552 4.37575,9.054428 4.37591,14.700343 -1.6e-4,5.087076 -1.01849,9.396516 -3.06541,12.934006 -2.48348,4.280522 -6.07737,6.415751 -10.79165,6.415751 -5.64612,0 -10.21236,-2.389762 -13.68615,-7.167825 -3.10143,-4.34182 -4.64953,-9.426453 -4.64941,-15.258747 -1.2e-4,-5.148374 1.11679,-9.430245 3.35031,-12.842876 2.66723,-3.910064 6.44916,-5.857274 11.35004,-5.85731 z m 41.41167,0.740697 c 6.94764,3.6e-5 12.56204,1.73392 16.84271,5.207777 4.71651,3.78524 7.07648,9.067045 7.07668,15.828527 -2e-4,6.143569 -1.61707,10.869268 -4.84314,14.187561 -3.22646,3.318293 -7.8799,4.979866 -13.95963,4.979866 -3.66268,0 -6.01123,-0.573354 -7.06527,-1.720756 -1.05439,-1.147329 -1.58416,-3.553172 -1.58399,-7.213408 l 0,-28.751156 c -1.7e-4,-1.674407 1.1741,-2.518375 3.53264,-2.518411 z M 5.6476354,74.195631 l 0,4.558246 277.1413646,0 0,-4.558246 z M 273.24192,82.753756 c -0.93763,0.01089 -1.83827,0.166941 -2.68937,0.455825 -0.85112,0.288919 -1.60918,0.709518 -2.26773,1.276308 -0.65857,0.566791 -1.18192,1.274924 -1.5726,2.119585 -0.39067,0.844698 -0.61071,1.828514 -0.66094,2.940068 0,1.315183 0.30889,2.449785 0.91164,3.407308 0.60275,0.957486 1.39384,1.687572 2.38169,2.199336 0.98784,0.511763 2.05223,0.805934 3.19077,0.877444 0.13952,0.01089 0.34188,0.0113 0.61536,0.0113 0.56368,0 1.17333,-0.0373 1.83469,-0.125333 0.66136,-0.08807 1.26449,-0.207054 1.7891,-0.341907 0.52464,-0.134814 0.88748,-0.248697 1.09399,-0.353246 l -0.1026,-0.501406 c -0.0949,-0.50075 -0.13676,-1.065134 -0.13676,-1.697965 l 0,-1.378852 c 0,-0.577802 0.11327,-1.344025 0.35329,-2.2905 l -3.07683,0.0113 c 0.21207,0.440217 0.37255,0.826282 0.47861,1.150938 0.25114,0.803455 0.37604,1.637614 0.37607,2.507036 -3e-5,0.242135 -0.0238,0.585024 -0.0684,1.014228 l -0.55839,0.170916 c -0.45765,0.148599 -1.02846,0.228715 -1.70934,0.25074 -0.25673,0 -0.43537,0 -0.54698,-0.0113 -0.68648,-0.07705 -1.30218,-0.245526 -1.85749,-0.501407 -0.55532,-0.255883 -1.05448,-0.596 -1.48143,-1.014229 -0.42696,-0.418191 -0.76028,-0.905961 -1.01421,-1.470017 -0.25394,-0.564017 -0.40537,-1.162169 -0.44442,-1.800506 -2e-5,-0.07702 0.003,-0.144186 0,-0.193744 -0.003,-0.04949 -0.005,-0.09896 -0.0114,-0.159502 0,-0.891484 0.17584,-1.721705 0.54699,-2.472866 0.37114,-0.751127 0.89403,-1.352414 1.54981,-1.811885 0.65576,-0.459508 1.39614,-0.720276 2.22213,-0.786317 0.0893,-0.01641 0.2263,-0.02261 0.42165,-0.02261 1.10503,0 2.35365,0.337746 3.73772,1.025604 l 0.47865,0.239326 0,-2.222162 c -0.44652,-0.176095 -1.02032,-0.3104 -1.72074,-0.387452 -0.70043,-0.07702 -1.38172,-0.113956 -2.06261,-0.113956 z m -64.73851,0.09117 c -0.86506,0.01641 -1.68546,0.20308 -2.45005,0.54699 -0.76461,0.343947 -1.43079,0.819134 -2.00563,1.424433 -0.57484,0.605336 -1.02377,1.304789 -1.34468,2.108208 -0.32092,0.803417 -0.47862,1.649756 -0.47862,2.541203 0.0335,1.205165 0.29237,2.296554 0.7863,3.27056 0.49393,0.974007 1.19569,1.750039 2.10819,2.336084 0.91249,0.586081 1.97991,0.91989 3.20217,0.991436 0.0893,0 0.16069,-0.0036 0.21651,0 0.0557,0.0036 0.12093,0.0059 0.18233,0.0113 0.8204,0 1.61428,-0.15943 2.38169,-0.47858 0.76738,-0.319187 1.4396,-0.773189 2.02841,-1.367475 0.5888,-0.594321 1.05261,-1.314597 1.39027,-2.153788 0.33764,-0.839192 0.51279,-1.768381 0.51281,-2.791945 -0.0336,-0.940967 -0.22075,-1.802622 -0.55839,-2.586786 -0.33766,-0.784127 -0.80427,-1.461994 -1.39026,-2.039796 -0.58603,-0.577804 -1.26709,-1.03104 -2.05122,-1.34472 -0.78414,-0.313644 -1.6257,-0.467202 -2.52983,-0.467202 z M 9.2258582,82.958877 c 0.01645,0.03855 0.037822,0.08135 0.056978,0.125333 0.019177,0.04406 0.047346,0.117895 0.091166,0.227913 0.07119,0.187143 0.1266834,0.4047 0.1595392,0.649569 0.032857,0.244905 0.057425,0.437737 0.068377,0.56978 l 0,9.914186 c 0,0.126573 -0.018197,0.316634 -0.045578,0.56978 -0.027381,0.253147 -0.076954,0.46166 -0.1481426,0.626778 -0.027381,0.07702 -0.05556,0.150458 -0.091166,0.216498 -0.035584,0.06604 -0.069262,0.109614 -0.091166,0.14816 l 2.9856532,0 c 0.925454,0 1.792765,-0.159866 2.586804,-0.490029 0.794027,-0.330162 1.491233,-0.793208 2.085397,-1.390265 0.594148,-0.597056 1.047114,-1.274924 1.367474,-2.039797 0.320343,-0.76491 0.478606,-1.574346 0.478616,-2.427284 -10e-6,-0.192577 -3.65e-4,-0.333591 -0.01138,-0.421656 -0.08215,-1.194078 -0.462829,-2.276095 -1.128165,-3.236355 -0.665356,-0.960221 -1.530369,-1.699751 -2.598202,-2.233541 -1.067843,-0.533752 -2.196633,-0.80907 -3.395894,-0.80907 l -2.3702871,0 z m 13.2872868,0 c 0.01645,0.03319 0.03278,0.08525 0.06838,0.159538 0.0356,0.07431 0.06334,0.138316 0.07977,0.18233 0.07119,0.187108 0.126682,0.410571 0.159538,0.660947 0.03286,0.250375 0.0515,0.437737 0.05698,0.56978 l 0,9.914186 c 0,0.121067 -0.0096,0.287169 -0.03417,0.512821 -0.02465,0.225615 -0.07695,0.433762 -0.148143,0.615327 -0.01645,0.04956 -0.04737,0.128871 -0.09117,0.227912 -0.04381,0.09908 -0.06926,0.161106 -0.09117,0.205156 l 2.757739,0 c -0.01645,-0.04405 -0.0501,-0.108844 -0.09117,-0.205156 -0.04107,-0.09628 -0.06881,-0.160706 -0.07977,-0.193707 -0.07119,-0.198121 -0.120765,-0.409769 -0.148144,-0.638155 -0.02738,-0.22835 -0.04604,-0.403131 -0.05698,-0.524198 l 0,-9.914186 c 0.0055,-0.132043 0.02092,-0.324875 0.04558,-0.56978 0.02465,-0.244869 0.07739,-0.463228 0.159539,-0.672324 0.09308,-0.214601 0.154502,-0.330491 0.170934,-0.330491 z m 6.563876,0 c 0.02738,0.04405 0.06467,0.113956 0.113956,0.193744 0.04929,0.07979 0.0925,0.162638 0.125351,0.250667 0.04381,0.137586 0.07474,0.279001 0.09117,0.433069 0.01645,0.154069 0.0287,0.295084 0.03417,0.42162 0.0055,0.126574 0.01138,0.218468 0.01138,0.273495 l 0,9.914186 c 0,0.126573 -0.02092,0.310361 -0.04558,0.54699 -0.02465,0.236627 -0.06556,0.451448 -0.136749,0.649568 -0.109526,0.247604 -0.177297,0.364658 -0.193724,0.364658 l 6.791785,0 0.99142,-2.313327 c -0.284766,0.104547 -0.603588,0.217665 -0.945835,0.330455 -0.342263,0.112825 -0.640592,0.198849 -0.91165,0.262117 -0.271074,0.06326 -0.639912,0.128068 -1.105376,0.205121 -0.547611,0.08803 -0.913271,0.143421 -1.093979,0.170916 -0.180714,0.02771 -0.42858,0.04561 -0.740715,0.04558 l -0.592571,0 0,-4.763331 c 0.301183,0 0.546311,0.0095 0.740715,0.03427 0.194397,0.0248 0.433161,0.07622 0.717923,0.136748 0.547606,0.110054 1.074266,0.26992 1.572595,0.489993 l 1.128167,-1.846053 c -0.711901,-0.05503 -1.275406,-0.07979 -1.675156,-0.07979 -0.29024,0 -0.513539,0 -0.672341,0.0113 -0.186192,0.0055 -0.375826,0.01459 -0.581177,0.02297 -0.205358,0.0083 -0.415489,0.01167 -0.615363,0.02261 -0.19988,0.01089 -0.4018,0.02953 -0.615363,0.057 l 0,-4.512664 0.546989,0.03427 c 0.618795,0.03319 1.171349,0.124568 1.675156,0.262117 0.722839,0.198121 1.205845,0.339499 1.435847,0.433035 l 1.002815,-2.051211 -7.053886,0 z m 23.315429,0 c 0.01743,0.03855 0.03664,0.08135 0.05698,0.125333 0.02035,0.04406 0.04468,0.117895 0.09117,0.227913 0.07555,0.187143 0.136065,0.4047 0.170933,0.649569 0.03486,0.244905 0.05675,0.437737 0.06838,0.56978 l 0,9.914186 c 0,0.126573 -0.01651,0.316634 -0.04558,0.56978 -0.02906,0.253147 -0.084,0.46166 -0.159538,0.626778 -0.02906,0.07702 -0.05339,0.150458 -0.09117,0.216498 -0.03778,0.06604 -0.06793,0.109614 -0.09117,0.14816 l 3.16798,0 c 0.982113,0 1.892296,-0.159866 2.734949,-0.490029 0.842637,-0.330162 1.580209,-0.793208 2.210748,-1.390265 0.630523,-0.597056 1.118668,-1.274924 1.45864,-2.039797 0.339953,-0.76491 0.512792,-1.574346 0.512803,-2.427284 -1.1e-5,-0.192577 -0.0112,-0.333591 -0.0228,-0.421656 -0.08718,-1.194078 -0.479075,-2.276095 -1.185144,-3.236355 -0.706086,-0.960221 -1.624533,-1.699751 -2.757739,-2.233541 -1.13322,-0.533752 -2.339729,-0.80907 -3.61241,-0.80907 z m 14.096377,0 c 0.02322,0.05503 0.05049,0.134377 0.09117,0.227912 0.04068,0.09357 0.08468,0.209825 0.125351,0.341868 0.0523,0.154106 0.0849,0.329252 0.113956,0.535612 0.02906,0.206362 0.05117,0.362655 0.05698,0.467203 l 0,5.823178 c 0,0.951981 0.164575,1.869027 0.490012,2.757702 0.325433,0.888713 0.807765,1.612526 1.458638,2.17658 0.650867,0.564056 1.429528,0.849185 2.336101,0.854691 0.621808,-3.7e-5 1.22227,-0.07071 1.800508,-0.216535 0.578223,-0.145828 1.1731,-0.381872 1.789112,-0.706528 l 0.717923,-0.376074 c -0.01163,0.07154 -0.03084,0.178392 -0.05698,0.3077 -0.02616,0.129309 -0.05631,0.255005 -0.09117,0.376037 -0.03486,0.104579 -0.07306,0.199615 -0.125351,0.284909 -0.05231,0.08528 -0.09631,0.144187 -0.125353,0.193742 l 2.928674,0 c -0.01743,-0.04955 -0.04469,-0.132406 -0.09117,-0.250738 -0.04651,-0.118295 -0.07397,-0.188966 -0.07977,-0.2165 -0.04069,-0.132079 -0.08178,-0.316268 -0.125353,-0.558403 -0.04358,-0.242096 -0.07375,-0.420015 -0.09117,-0.535575 l 0,-9.914186 c -1.1e-5,-0.126537 0.0026,-0.304454 0.02279,-0.535613 0.02031,-0.231085 0.07817,-0.451411 0.159539,-0.649532 0.02323,-0.066 0.05606,-0.128067 0.102566,-0.20512 l 0.102566,-0.18233 -2.928674,0 c 0.02323,0.04405 0.05048,0.117093 0.09117,0.205121 0.04067,0.08807 0.08489,0.168182 0.113956,0.250703 0.06973,0.198121 0.110587,0.400762 0.136747,0.615364 0.02616,0.214639 0.04535,0.385847 0.05698,0.501407 l 0,6.803164 c -1.1e-5,0.517307 -0.09045,0.986223 -0.273495,1.401679 -0.183067,0.415457 -0.43808,0.76502 -0.763506,1.048397 -0.325444,0.283414 -0.695683,0.486456 -1.105374,0.626776 -0.409707,0.140323 -0.823486,0.2165 -1.253518,0.2165 -0.488159,-0.01089 -0.970947,-0.151991 -1.435849,-0.421656 -0.464911,-0.269629 -0.842957,-0.677683 -1.150956,-1.230726 -0.308006,-0.553007 -0.467224,-1.230107 -0.46722,-2.017006 l 0,-6.427128 c 0.01163,-0.126537 0.03352,-0.313096 0.06838,-0.546989 0.03486,-0.233856 0.08421,-0.445943 0.148143,-0.649532 0.09879,-0.247641 0.164892,-0.376074 0.18233,-0.376074 z m 18.7116,0 -3.099606,0.02261 c 0.116227,0.07154 0.291971,0.173251 0.512802,0.319077 0.22083,0.145827 0.401476,0.289977 0.558385,0.433033 0.09879,0.08807 0.236128,0.228679 0.398846,0.410244 0.162714,0.181599 0.277715,0.310798 0.353265,0.398827 l 0,9.902807 c -5e-6,0.115562 -0.01386,0.278163 -0.03417,0.489994 -0.02035,0.211867 -0.06143,0.411373 -0.125352,0.603986 -0.02327,0.06054 -0.06165,0.148891 -0.113956,0.250704 -0.0523,0.10181 -0.08489,0.166978 -0.113956,0.216535 l 2.928674,0 c -0.01743,-0.04405 -0.04758,-0.109218 -0.09117,-0.216535 -0.04359,-0.107316 -0.07955,-0.183496 -0.09117,-0.216535 -0.06974,-0.214603 -0.116184,-0.426288 -0.148144,-0.638155 -0.03198,-0.211831 -0.05675,-0.374432 -0.06838,-0.489994 l 0,-7.019698 6.734808,8.580917 2.336101,0 c -0.01163,-0.02771 -0.02793,-0.07661 -0.05698,-0.148162 -0.02906,-0.07154 -0.06212,-0.145353 -0.09117,-0.227912 -0.02906,-0.08256 -0.05653,-0.156001 -0.07977,-0.216498 -0.05231,-0.181602 -0.09072,-0.362654 -0.113956,-0.54699 -0.02327,-0.184371 -0.04536,-0.322614 -0.05698,-0.421657 l 0,-9.914184 c 0.0059,-0.115561 0.02232,-0.281299 0.04558,-0.501407 0.02322,-0.220109 0.06723,-0.416077 0.125352,-0.581196 0.02323,-0.055 0.05628,-0.119389 0.09117,-0.193706 0.03486,-0.07428 0.05651,-0.132809 0.07977,-0.18233 0.02322,-0.04952 0.04534,-0.09193 0.05698,-0.113956 l -2.917278,0 c 0.02906,0.06604 0.06455,0.163842 0.113956,0.284909 0.04939,0.121066 0.07931,0.243592 0.102566,0.36466 0.04648,0.16508 0.0878,0.333954 0.113956,0.512784 0.02616,0.178865 0.04535,0.316706 0.05698,0.410242 l 0,7.897143 -7.40715,-9.469738 z m 14.062191,0 c 0.02903,0.04405 0.06455,0.114321 0.113958,0.205121 0.04937,0.0908 0.08489,0.173688 0.113948,0.250703 0.06972,0.176096 0.119314,0.381106 0.136754,0.603986 0.01748,0.222845 0.02277,0.391718 0.02277,0.512785 l 0,9.914186 c -0.0055,0.05503 -0.01672,0.150058 -0.0342,0.284908 -0.01748,0.134815 -0.04201,0.294244 -0.07972,0.47858 -0.03783,0.184371 -0.07885,0.328886 -0.125351,0.444447 -0.09292,0.236627 -0.142329,0.353281 -0.148136,0.353281 l 2.928679,0 c -0.0117,-0.01641 -0.0225,-0.03814 -0.0342,-0.06841 -0.0117,-0.03026 -0.0449,-0.08248 -0.0797,-0.159502 -0.0349,-0.07705 -0.0567,-0.132042 -0.0684,-0.159574 -0.0697,-0.236591 -0.11619,-0.457721 -0.14814,-0.672324 -0.032,-0.214602 -0.0567,-0.380339 -0.0684,-0.501406 l 0,-5.264775 4.37593,5.264775 c 0.0814,0.104547 0.20216,0.266749 0.35326,0.478616 0.15109,0.211867 0.28283,0.399594 0.38745,0.581194 0.1627,0.33567 0.24465,0.501407 0.2621,0.501407 l 3.111,0 c -0.0233,-0.02188 -0.0591,-0.04362 -0.0912,-0.06841 -0.032,-0.02479 -0.0977,-0.08011 -0.20512,-0.170915 -0.10754,-0.0908 -0.18725,-0.155199 -0.22791,-0.193743 -0.21503,-0.187071 -0.43165,-0.392484 -0.64955,-0.615327 -0.21794,-0.222881 -0.37961,-0.391754 -0.49001,-0.512821 l -4.64941,-5.549647 3.93148,-4.38733 c 0.13365,-0.143056 0.33954,-0.333919 0.60396,-0.592572 0.26442,-0.258616 0.53595,-0.478945 0.8091,-0.649568 0.30218,-0.203589 0.46652,-0.307664 0.50139,-0.307664 l -3.61239,0 c -0.005,0.03855 -0.0168,0.108449 -0.0342,0.193744 -0.0175,0.08528 -0.0283,0.131642 -0.0342,0.148124 -0.0582,0.231121 -0.15926,0.461258 -0.31907,0.695114 -0.15982,0.233894 -0.30007,0.414546 -0.39885,0.535613 l -3.6238,4.364539 0,-4.364539 c 0.006,-0.126537 0.0195,-0.316232 0.0455,-0.558366 0.0262,-0.242135 0.084,-0.451049 0.15954,-0.638155 0.0117,-0.02771 0.0306,-0.08525 0.0684,-0.159575 0.0378,-0.07425 0.0652,-0.120593 0.0797,-0.148125 0.0145,-0.02735 0.034,-0.05186 0.0455,-0.06838 l -2.928667,0 z m 15.099182,0 c 0.0232,0.03855 0.0448,0.09036 0.0797,0.148161 0.0348,0.05777 0.0732,0.122562 0.11397,0.205085 0.0872,0.19812 0.13919,0.421619 0.15953,0.660982 0.0203,0.239364 0.0342,0.426324 0.0342,0.558367 l 0,9.914186 c -0.005,0.11556 -0.0195,0.281298 -0.0455,0.501406 -0.0262,0.220109 -0.0672,0.416077 -0.12535,0.581159 -0.029,0.09908 -0.0704,0.185465 -0.11396,0.273495 -0.0436,0.08805 -0.0734,0.155601 -0.1026,0.205156 l 6.71202,0 1.07119,-2.529862 c -0.75549,0.280679 -1.57836,0.52573 -2.45006,0.72932 -0.14529,0.02771 -0.36188,0.07074 -0.64955,0.136747 -0.28766,0.06604 -0.57282,0.126938 -0.85467,0.170953 -0.28186,0.04401 -0.52547,0.057 -0.7521,0.05697 l -0.547,0 0,-10.039519 c 0.005,-0.132044 0.0195,-0.324875 0.0455,-0.569781 0.0262,-0.244869 0.0838,-0.463228 0.17095,-0.672324 0.0988,-0.214601 0.16488,-0.330491 0.18232,-0.330491 l -2.92867,0 z m 11.78306,0 c 0.0291,0.04405 0.0617,0.113956 0.11396,0.193744 0.0523,0.07979 0.10196,0.162638 0.13674,0.250667 0.0466,0.137586 0.0737,0.279001 0.0912,0.433069 0.0175,0.154069 0.0283,0.295084 0.0342,0.42162 0.005,0.126574 0.0114,0.218468 0.0114,0.273495 l 0,9.914186 c 0,0.126573 -0.007,0.310361 -0.0342,0.54699 -0.0262,0.236627 -0.0841,0.451448 -0.15954,0.649568 -0.11623,0.247604 -0.17629,0.364658 -0.19372,0.364658 l 7.20203,0 1.04839,-2.313327 c -0.30219,0.104547 -0.62822,0.217665 -0.99142,0.330455 -0.36321,0.112825 -0.69237,0.198849 -0.98002,0.262117 -0.28767,0.06326 -0.67979,0.128068 -1.17375,0.205121 -0.58114,0.08803 -0.97057,0.143421 -1.16234,0.170916 -0.19179,0.02771 -0.45507,0.04561 -0.78631,0.04558 l -0.62675,0 0,-4.763331 c 0.31962,0 0.59138,0.0095 0.79768,0.03427 0.20631,0.0248 0.44992,0.07622 0.75212,0.136748 0.58112,0.110054 1.14631,0.26992 1.67515,0.489993 l 1.18515,-1.846053 c -0.75549,-0.05503 -1.34211,-0.07979 -1.76633,-0.07979 -0.30799,0 -0.5494,0 -0.71792,0.0113 -0.19758,0.0055 -0.39744,0.01459 -0.61536,0.02297 -0.21794,0.0083 -0.43744,0.01167 -0.64955,0.02261 -0.21212,0.01089 -0.4343,0.02953 -0.66094,0.057 l 0,-4.512664 0.58117,0.03427 c 0.65667,0.03319 1.25447,0.124568 1.7891,0.262117 0.7671,0.198121 1.27155,0.339499 1.51562,0.433035 l 1.0712,-2.051211 -7.48692,0 z m 24.92222,0 c 0.0279,0.06054 0.058,0.161106 0.1026,0.284909 0.0446,0.123801 0.0745,0.219233 0.0912,0.296249 0.039,0.115598 0.0804,0.275428 0.11395,0.49003 0.0335,0.214639 0.0572,0.374069 0.0684,0.478616 l 0,9.879981 c 0,0.126572 -0.0205,0.313534 -0.0456,0.558402 -0.025,0.244869 -0.0697,0.450684 -0.13675,0.626742 -0.0167,0.04405 -0.0438,0.114721 -0.0912,0.216535 -0.0474,0.101809 -0.0802,0.172483 -0.1026,0.216533 l 3.1224,0 c 0.75343,0 1.49358,-0.141414 2.21075,-0.433068 0.71716,-0.291619 1.30565,-0.711852 1.75493,-1.264896 0.44925,-0.553043 0.67233,-1.193968 0.67233,-1.925877 -0.0336,-0.605298 -0.18515,-1.11429 -0.45582,-1.526976 -0.27069,-0.412722 -0.6896,-0.84787 -1.24212,-1.299136 l -0.56977,-0.467203 0.44441,-0.410241 c 0.41858,-0.4237 0.73352,-0.806227 0.93445,-1.128185 0.2009,-0.321885 0.30209,-0.699308 0.30767,-1.139562 -1e-5,-0.495244 -0.10721,-0.958252 -0.33046,-1.390228 -0.22326,-0.431976 -0.52354,-0.802726 -0.90025,-1.105393 -0.37674,-0.302631 -0.80449,-0.538675 -1.26492,-0.706528 -0.46044,-0.167817 -0.92774,-0.250704 -1.42445,-0.250704 z m 12.29587,0 c 0.0279,0.04405 0.0638,0.113956 0.11395,0.193744 0.0503,0.07979 0.0918,0.162638 0.12536,0.250667 0.0446,0.137586 0.0745,0.279001 0.0912,0.433069 0.0167,0.154069 0.0286,0.295084 0.0342,0.42162 0.005,0.126574 0.0113,0.218468 0.0113,0.273495 l 0,9.914186 c 0,0.126573 -0.009,0.310361 -0.0342,0.54699 -0.025,0.236627 -0.0755,0.451448 -0.14814,0.649568 -0.11162,0.247604 -0.17698,0.364658 -0.19372,0.364658 l 6.91714,0 1.00282,-2.313327 c -0.29023,0.104547 -0.60843,0.217665 -0.95724,0.330455 -0.34882,0.112825 -0.65818,0.198849 -0.93444,0.262117 -0.27627,0.06326 -0.65378,0.128068 -1.12817,0.205121 -0.5581,0.08803 -0.9212,0.143421 -1.10538,0.170916 -0.18417,0.02771 -0.44538,0.04561 -0.7635,0.04558 l -0.59257,0 0,-4.763331 c 0.30695,0 0.55398,0.0095 0.7521,0.03427 0.19813,0.0248 0.43912,0.07622 0.72933,0.136748 0.5581,0.110054 1.09891,0.26992 1.60678,0.489993 l 1.13956,-1.846053 c -0.72555,-0.05503 -1.29053,-0.07979 -1.69795,-0.07979 -0.29579,0 -0.52188,0 -0.68374,0.0113 -0.18975,0.0055 -0.39467,0.01459 -0.60396,0.02297 -0.20929,0.0083 -0.41166,0.01167 -0.61536,0.02261 -0.20371,0.01089 -0.40911,0.02953 -0.62676,0.057 l 0,-4.512664 0.54698,0.03427 c 0.63066,0.03319 1.20729,0.124568 1.72075,0.262117 0.73669,0.198121 1.21283,0.339499 1.44723,0.433035 l 1.03702,-2.051211 -7.19064,0 z m 12.27307,0 c 0.0167,0.03855 0.0261,0.08135 0.0455,0.125333 0.0196,0.04406 0.058,0.117895 0.10259,0.227913 0.0726,0.187143 0.12606,0.4047 0.15955,0.649569 0.0335,0.244905 0.0572,0.437737 0.0684,0.56978 l 0,9.914186 c 0,0.126573 -0.0177,0.316634 -0.0455,0.56978 -0.0279,0.253147 -0.0755,0.46166 -0.14813,0.626778 -0.0279,0.07702 -0.0663,0.150458 -0.1026,0.216498 -0.0363,0.06604 -0.0574,0.109614 -0.0797,0.14816 l 3.04264,0 c 0.94319,0 1.82312,-0.159866 2.63239,-0.490029 0.80924,-0.330162 1.51402,-0.793208 2.11959,-1.390265 0.60553,-0.597056 1.07514,-1.274924 1.40165,-2.039797 0.32648,-0.76491 0.48999,-1.574346 0.49,-2.427284 -10e-6,-0.192577 -0.0116,-0.333591 -0.0228,-0.421656 -0.0837,-1.194078 -0.46147,-2.276095 -1.13956,-3.236355 -0.67811,-0.960221 -1.56689,-1.699751 -2.65518,-2.233541 -1.08831,-0.533752 -2.24203,-0.80907 -3.46427,-0.80907 l -2.40448,0 z m 16.97947,0 -3.05403,0.02261 c 0.0223,0.03855 0.0549,0.08802 0.0912,0.159539 0.0363,0.07154 0.0572,0.138717 0.0684,0.193743 0.0726,0.187107 0.12606,0.39602 0.15954,0.638154 0.0335,0.242135 0.0514,0.431831 0.057,0.558368 l 0,9.914184 c -0.005,0.115562 -0.0205,0.2813 -0.0456,0.501409 -0.025,0.220108 -0.0699,0.428658 -0.13674,0.62674 -0.0167,0.04956 -0.0466,0.128871 -0.0912,0.227912 -0.0446,0.09908 -0.0802,0.161107 -0.1026,0.205158 l 2.81472,0 c -0.0224,-0.04956 -0.0607,-0.120229 -0.10259,-0.216535 -0.0419,-0.09631 -0.0747,-0.179559 -0.1026,-0.262117 -0.0614,-0.209097 -0.10303,-0.417245 -0.12535,-0.615327 -0.0223,-0.19812 -0.0344,-0.351678 -0.0455,-0.46724 l 0,-4.011255 0.28489,-0.170916 c 0.78693,1.172089 1.62546,2.201851 2.51843,3.076779 0.81483,0.764911 1.3854,1.274304 1.69795,1.538427 0.31252,0.264123 0.68144,0.52139 1.11677,0.763524 l 0.69513,0.36466 1.73213,0 -1.19654,-0.923063 c -0.34044,-0.264124 -0.62609,-0.518255 -0.86607,-0.752112 -0.23999,-0.233856 -0.44793,-0.44554 -0.61536,-0.638153 -0.16743,-0.192613 -0.4826,-0.566499 -0.94583,-1.116771 -0.40743,-0.489737 -0.72586,-0.87934 -0.96863,-1.17373 -0.24278,-0.294426 -0.40026,-0.512383 -0.46722,-0.660982 l -0.20512,-0.489993 0.64955,-0.444411 c 0.78133,-0.511763 1.29004,-1.026261 1.53841,-1.52705 0.24834,-0.500713 0.37605,-1.095728 0.37606,-1.789092 -0.005,-0.489738 -0.15143,-0.947277 -0.44443,-1.390266 -0.29302,-0.442951 -0.67333,-0.828653 -1.12817,-1.13956 -0.45486,-0.31091 -0.95473,-0.550455 -1.51562,-0.72932 -0.5609,-0.17883 -1.11078,-0.273495 -1.64097,-0.273495 z m 26.82772,0 c 0.0223,0.04405 0.0466,0.117493 0.0912,0.216498 0.0446,0.09908 0.0745,0.178428 0.0912,0.227913 0.067,0.17613 0.12303,0.375636 0.14814,0.603986 0.0251,0.228386 0.0401,0.403131 0.0456,0.524198 l 0,9.914186 c -0.005,0.11556 -0.0205,0.275391 -0.0456,0.489992 -0.025,0.214639 -0.0812,0.42906 -0.14814,0.638156 -0.11721,0.291654 -0.17117,0.433068 -0.18232,0.433068 l 2.80332,0 c -0.0223,-0.05506 -0.0492,-0.134777 -0.0912,-0.239325 -0.0419,-0.104548 -0.0747,-0.190936 -0.1026,-0.273495 -0.0614,-0.20359 -0.10302,-0.399959 -0.12534,-0.592572 -0.0224,-0.192613 -0.0458,-0.34577 -0.057,-0.455824 l 0,-4.193587 5.36733,0 0,4.193587 c -0.005,0.11556 -0.0205,0.278527 -0.0455,0.501406 -0.025,0.22288 -0.0582,0.421985 -0.11395,0.592572 -0.11722,0.313681 -0.1942,0.467238 -0.21652,0.467238 l 2.81472,0 c -0.0224,-0.04955 -0.0549,-0.114355 -0.0912,-0.205156 -0.0363,-0.09077 -0.0693,-0.191701 -0.11396,-0.29625 -0.0503,-0.1816 -0.0889,-0.372099 -0.11395,-0.581194 -0.0251,-0.209096 -0.0458,-0.368562 -0.057,-0.478616 l 0,-9.914186 c 0.005,-0.126537 0.0204,-0.316232 0.0455,-0.558367 0.025,-0.242134 0.0755,-0.451048 0.14815,-0.638154 0.12835,-0.247641 0.1879,-0.376074 0.18233,-0.376074 l -2.81472,0 c 0.0167,0.03855 0.0463,0.09354 0.0797,0.159538 0.0334,0.06604 0.0574,0.127704 0.0797,0.193708 0.0726,0.187143 0.12605,0.4047 0.15955,0.649569 0.0334,0.244905 0.0513,0.437737 0.057,0.56978 l 0,3.999879 -5.36732,0 0,-3.999879 c 0.0111,-0.126537 0.0377,-0.298583 0.0684,-0.524198 0.0307,-0.225615 0.0812,-0.451813 0.14815,-0.660947 0.0893,-0.258616 0.1372,-0.38745 0.15954,-0.38745 l -2.80333,0 z m 14.51802,0 c 0.0223,0.05503 0.0521,0.134377 0.0912,0.227912 0.039,0.09357 0.0749,0.209825 0.11395,0.341868 0.0503,0.154106 0.0975,0.329252 0.12534,0.535612 0.0279,0.206362 0.0401,0.362655 0.0455,0.467203 l 0,5.823178 c 0,0.951981 0.15467,1.869027 0.46721,2.757702 0.31253,0.888713 0.78799,1.612526 1.41306,2.17658 0.62507,0.564056 1.36289,0.849185 2.23354,0.854691 0.59717,-3.7e-5 1.17682,-0.07071 1.73212,-0.216535 0.55531,-0.145828 1.12916,-0.381872 1.72075,-0.706528 l 0.68374,-0.376074 c -0.0111,0.07154 -0.0204,0.178392 -0.0456,0.3077 -0.025,0.129309 -0.0577,0.255005 -0.0912,0.376037 -0.0336,0.104579 -0.0751,0.199615 -0.12535,0.284909 -0.0503,0.08528 -0.0861,0.144187 -0.11395,0.193742 l 2.80331,0 c -0.0167,-0.04955 -0.0465,-0.132406 -0.0912,-0.250738 -0.0446,-0.118295 -0.0628,-0.188966 -0.0684,-0.2165 -0.039,-0.132079 -0.0834,-0.316268 -0.12536,-0.558403 -0.0419,-0.242096 -0.0745,-0.420015 -0.0912,-0.535575 l 0,-9.914186 c -1e-5,-0.126537 0.0146,-0.304454 0.0342,-0.535613 0.0195,-0.231085 0.0699,-0.451411 0.14816,-0.649532 0.0223,-0.066 0.0579,-0.128067 0.1026,-0.20512 l 0.0912,-0.18233 -2.80331,0 c 0.0223,0.04405 0.0521,0.117093 0.0912,0.205121 0.039,0.08807 0.0632,0.168182 0.0912,0.250703 0.067,0.198121 0.12302,0.400762 0.14816,0.615364 0.025,0.214639 0.0344,0.385847 0.0455,0.501407 l 0,6.803164 c -1e-5,0.517307 -0.0863,0.986223 -0.26211,1.401679 -0.1758,0.415457 -0.41679,0.76502 -0.72931,1.048397 -0.31254,0.283414 -0.66634,0.486456 -1.0598,0.626776 -0.39348,0.140323 -0.79494,0.2165 -1.20793,0.2165 -0.46882,-0.01089 -0.9324,-0.151991 -1.37887,-0.421656 -0.44649,-0.269629 -0.80959,-0.677683 -1.10537,-1.230726 -0.2958,-0.553007 -0.44444,-1.230107 -0.44444,-2.017006 l 0,-6.427128 c 0.0112,-0.126537 0.0348,-0.313096 0.0684,-0.546989 0.0335,-0.233856 0.0753,-0.445943 0.13675,-0.649532 0.0949,-0.247641 0.15418,-0.376074 0.17093,-0.376074 l -2.81471,0 z m 18.36973,0 -2.97426,0.02261 c 0.11162,0.07154 0.26654,0.173251 0.47861,0.319077 0.21208,0.145827 0.39631,0.289977 0.54699,0.433033 0.0949,0.08807 0.21978,0.228679 0.37605,0.410244 0.15628,0.181599 0.26933,0.310798 0.34188,0.398827 l 0,9.902807 c -1e-5,0.115562 -0.003,0.278163 -0.0228,0.489994 -0.0196,0.211867 -0.064,0.411373 -0.12535,0.603986 -0.0223,0.06054 -0.0523,0.148891 -0.1026,0.250704 -0.0503,0.10181 -0.0974,0.166978 -0.12537,0.216535 l 2.81473,0 c -0.0167,-0.04405 -0.0492,-0.109218 -0.0912,-0.216535 -0.0419,-0.107316 -0.0686,-0.183496 -0.0797,-0.216535 -0.067,-0.214603 -0.10601,-0.426288 -0.13674,-0.638155 -0.0307,-0.211831 -0.0572,-0.374432 -0.0684,-0.489994 l 0,-7.019698 6.46132,8.580917 2.24493,0 c -0.0112,-0.02771 -0.0292,-0.07661 -0.057,-0.148162 -0.0279,-0.07154 -0.0519,-0.145353 -0.0797,-0.227912 -0.0279,-0.08256 -0.0574,-0.156001 -0.0797,-0.216498 -0.0503,-0.181602 -0.0916,-0.362654 -0.11396,-0.54699 -0.0223,-0.184371 -0.0344,-0.322614 -0.0455,-0.421657 l 0,-9.914184 c 0.005,-0.115561 0.0233,-0.281299 0.0455,-0.501407 0.0224,-0.220109 0.0582,-0.416077 0.11396,-0.581196 0.0223,-0.055 0.0462,-0.119389 0.0797,-0.193706 0.0335,-0.07428 0.0688,-0.132809 0.0912,-0.18233 0.0223,-0.04952 0.0344,-0.09193 0.0455,-0.113956 l -2.80333,0 c 0.0279,0.06604 0.0665,0.163842 0.11397,0.284909 0.0474,0.121066 0.0802,0.243592 0.1026,0.36466 0.0446,0.16508 0.0774,0.333954 0.1026,0.512784 0.025,0.178865 0.0458,0.316706 0.057,0.410242 l 0,7.897143 -7.11087,-9.469738 z m -60.33083,1.036982 0.35326,0.102577 c 0.60275,0.187106 1.06051,0.33793 1.36749,0.467239 0.30695,0.129307 0.62794,0.36258 0.95722,0.706491 0.32928,0.343947 0.5435,0.818771 0.64955,1.413056 0.0224,0.154105 0.0342,0.26445 0.0342,0.330491 -3e-5,0.643844 -0.28565,1.219969 -0.86608,1.72072 -0.58043,0.500787 -1.27591,0.832627 -2.074,1.014228 l -0.42163,0.09117 0,-5.84597 z m -38.50578,0.193745 0.2735,0.02261 c 0.32927,0.02188 0.66841,0.135509 1.02559,0.341869 0.35719,0.20636 0.65725,0.476173 0.88886,0.809071 0.23162,0.332934 0.35931,0.692306 0.37606,1.093978 0,0.335706 -0.0769,0.678559 -0.21651,1.014229 -0.13953,0.335669 -0.33003,0.61529 -0.58118,0.854652 -0.25116,0.2394 -0.5247,0.395693 -0.82049,0.46724 l -0.94583,0.20512 0,-4.808949 z m 54.38231,0.04558 c 0.77018,0 1.54893,0.205412 2.32471,0.615363 0.77575,0.409987 1.43285,0.999059 1.97143,1.777717 0.53856,0.778657 0.85677,1.677251 0.95723,2.700742 0.0112,0.09908 0.0113,0.264014 0.0113,0.478652 -1e-5,0.742884 -0.14004,1.467062 -0.43303,2.187958 -0.29302,0.72086 -0.70891,1.31861 -1.23073,1.789094 -0.52183,0.470484 -1.0959,0.743067 -1.73214,0.809106 -0.10046,0.01089 -0.24909,0.0113 -0.44443,0.0113 -0.62508,0 -1.23473,-0.119791 -1.83469,-0.364659 -0.59997,-0.244869 -1.13821,-0.597569 -1.61818,-1.059775 -0.47997,-0.462243 -0.86656,-1.019953 -1.16235,-1.663796 -0.2958,-0.643807 -0.48003,-1.349569 -0.547,-2.130961 -0.0111,-0.09905 -0.0228,-0.251835 -0.0228,-0.444412 -1e-5,-0.76491 0.15468,-1.498131 0.46721,-2.210785 0.31254,-0.712581 0.75845,-1.298153 1.3333,-1.754889 0.57483,-0.456736 1.22891,-0.702188 1.96004,-0.740734 z m -196.269118,0.07975 0.558384,0.102576 c 0.755699,0.126573 1.450166,0.417973 2.085399,0.877481 0.635222,0.459471 1.140498,1.014409 1.515616,1.663723 0.375104,0.64935 0.589304,1.318173 0.649552,2.017042 0.01089,0.09905 0.02279,0.251834 0.02279,0.444411 -6e-6,0.643844 -0.101894,1.242395 -0.296286,1.811921 -0.194406,0.569562 -0.473644,1.093833 -0.843276,1.572594 -0.36964,0.478763 -0.809882,0.88328 -1.32189,1.207936 -0.512018,0.324657 -1.079152,0.557163 -1.697948,0.683737 l -0.67234,0.136747 z m 43.30334,0 0.59257,0.102576 c 0.801964,0.126573 1.548025,0.417973 2.222146,0.877481 0.67411,0.459471 1.208697,1.014409 1.606781,1.663723 0.398071,0.64935 0.631201,1.318173 0.695134,2.017042 0.01163,0.09905 0.01138,0.251834 0.01138,0.444411 -7e-6,0.643844 -0.101394,1.242395 -0.307682,1.811921 -0.20631,0.569562 -0.507996,1.093833 -0.900253,1.572594 -0.392272,0.478763 -0.858307,0.88328 -1.401661,1.207936 -0.543365,0.324657 -1.143829,0.557163 -1.800507,0.683737 l -0.717924,0.136747 0,-10.51817 z m 123.152418,0 0.56978,0.102576 c 0.77017,0.126573 1.47217,0.417973 2.11958,0.877481 0.64739,0.459471 1.16749,1.014409 1.54981,1.663723 0.38229,0.64935 0.59954,1.318173 0.66094,2.017042 0.0111,0.09905 0.0228,0.251834 0.0228,0.444411 -1e-5,0.643844 -0.0982,1.242395 -0.29628,1.811921 -0.19814,0.569562 -0.48937,1.093833 -0.86607,1.572594 -0.37673,0.478763 -0.82286,0.88328 -1.34468,1.207936 -0.52184,0.324657 -1.10149,0.557163 -1.73214,0.683737 l -0.68374,0.136747 z m -24.56895,4.991315 0.67234,0.18233 c 0.45764,0.13755 0.86819,0.343729 1.24211,0.638155 0.37394,0.29439 0.65656,0.64078 0.85468,1.036982 0.19813,0.396204 0.30814,0.830988 0.33047,1.287724 0,0.396202 -0.12794,0.770452 -0.38745,1.128147 -0.25952,0.357694 -0.56563,0.651866 -0.91165,0.877482 -0.34602,0.225614 -0.62561,0.336725 -0.84327,0.353244 l -0.95723,0.03427 0,-5.538232 z"
     id="text3054" />
</svg>
